<svg id="Capa_1" enable-background="new 0 0 372.216 372.216" height="512" viewBox="0 0 372.216 372.216" width="512" xmlns="http://www.w3.org/2000/svg"><g><path d="m348.753 108.544c-49.308-15.973-85.952-57.607-95.535-108.544h-134.215c-9.583 50.937-46.226 92.571-95.535 108.544-17.496 5.875-26.917 24.821-21.043 42.317.798 2.375 1.86 4.653 3.166 6.791 26.711 43.909 64.971 120.737 76.011 214.565h209.015c11.04-93.828 49.296-170.651 76.011-214.565 9.625-15.747 4.662-36.316-11.085-45.942-2.137-1.307-4.415-2.369-6.79-3.166z" fill="#3a556a"/><path d="m302.939 79.38c-.858-1.184-2.181-1.946-3.636-2.092-4.422-.371-7.449 4.946-8.345 10.308-.656 3.132-.261 6.394 1.123 9.279-2.479 1.798-4.278 4.382-5.105 7.331-1.029 2.826-1.084 5.914-.158 8.775-2.599 1.278-4.673 3.42-5.866 6.059-1.337 2.514-1.765 5.413-1.212 8.206-2.72.779-5.071 2.505-6.628 4.867-1.653 2.206-2.473 4.925-2.315 7.677-2.732.335-5.256 1.629-7.123 3.65-1.962 1.897-3.177 4.435-3.423 7.152-2.671-.089-5.286.773-7.38 2.434-2.179 1.574-3.714 3.885-4.318 6.505-2.623-.472-5.329.005-7.632 1.345-2.366 1.242-4.197 3.306-5.149 5.802-2.532-.82-5.272-.711-7.731.307-2.48.905-4.55 2.673-5.832 4.981-2.427-1.105-5.165-1.322-7.736-.613-2.579.58-4.863 2.071-6.43 4.199-2.267-1.406-4.958-1.965-7.598-1.578-2.636.262-5.092 1.456-6.925 3.368-2.072-1.669-4.671-2.546-7.331-2.473-2.658-.071-5.254.806-7.326 2.473-1.835-1.909-4.29-3.101-6.925-3.364-2.639-.388-5.33.169-7.598 1.573-1.571-2.124-3.853-3.612-6.43-4.195-2.572-.71-5.313-.493-7.741.613-1.285-2.307-3.356-4.075-5.837-4.981-2.459-1.018-5.201-1.125-7.731-.302-.947-2.5-2.777-4.565-5.144-5.807-2.306-1.34-5.013-1.815-7.637-1.34-.602-2.622-2.137-4.935-4.318-6.509-2.094-1.66-4.709-2.523-7.38-2.434-.246-2.717-1.461-5.256-3.423-7.152-1.857-2.038-4.382-3.345-7.118-3.685.147-2.741-.674-5.446-2.32-7.642-1.56-2.358-3.91-4.083-6.628-4.862.553-2.793.125-5.692-1.212-8.206-1.199-2.634-3.272-4.773-5.866-6.054.926-2.863.87-5.952-.158-8.78-.822-2.949-2.62-5.531-5.1-7.326 1.382-2.888 1.775-6.151 1.118-9.284-.895-5.387-4.066-10.65-8.335-10.308-1.46.15-2.787.917-3.645 2.107-2.034 3.161-2.731 7-1.939 10.674.388 3.472 2.127 6.651 4.843 8.849-1.385 3.139-1.509 6.69-.346 9.918.855 3.172 2.952 5.866 5.817 7.474-.905 3.127-.541 6.484 1.014 9.344 1.286 2.868 3.685 5.09 6.643 6.153-.439 3.089.379 6.225 2.27 8.706 1.677 2.545 4.315 4.302 7.311 4.867.216 6.137 4.994 11.141 11.115 11.639h.143c.433 2.928 2.041 5.554 4.452 7.271 1.975 1.567 4.405 2.451 6.925 2.518.439.001.878-.035 1.311-.109.825 2.809 2.762 5.159 5.362 6.505 1.785 1.023 3.8 1.576 5.857 1.608.87.003 1.735-.123 2.567-.376 1.197 2.657 3.424 4.713 6.168 5.693 1.467.585 3.031.89 4.61.9 1.34.017 2.667-.255 3.893-.796 1.538 2.475 4.013 4.22 6.861 4.838 1.038.263 2.105.398 3.176.401 1.845.034 3.663-.444 5.253-1.38 1.843 2.26 4.516 3.686 7.42 3.957.541.069 1.087.104 1.632.104 2.373.056 4.695-.692 6.589-2.122 2.09 1.961 4.866 3.024 7.731 2.963 2.934.096 5.784-.987 7.914-3.007 1.894 1.43 4.216 2.178 6.589 2.122.547-.001 1.094-.035 1.637-.104 2.904-.272 5.577-1.697 7.42-3.957 1.59.936 3.408 1.413 5.253 1.38 1.073-.003 2.141-.138 3.181-.401 2.846-.619 5.319-2.364 6.856-4.838 1.227.542 2.556.813 3.898.796 1.578-.01 3.14-.316 4.605-.9 2.744-.981 4.971-3.036 6.168-5.693.832.252 1.697.379 2.567.376 2.057-.032 4.072-.585 5.857-1.608 2.6-1.346 4.537-3.696 5.362-6.505.433.074.872.11 1.311.109 2.51-.074 4.93-.955 6.9-2.513 2.41-1.721 4.017-4.347 4.452-7.276h.143c6.119-.502 10.894-5.503 11.115-11.639 2.995-.564 5.633-2.318 7.311-4.862 1.891-2.483 2.709-5.62 2.27-8.711 2.957-1.063 5.355-3.282 6.643-6.148 1.55-2.862 1.906-6.221.989-9.344 2.861-1.605 4.958-4.29 5.822-7.454 1.164-3.229 1.04-6.782-.346-9.922 2.714-2.197 4.453-5.374 4.843-8.844.79-3.676.097-7.516-1.934-10.68zm-230.502 2.473c.183-.288.47-.495.801-.579h.094c1.172 0 3.27 2.646 3.987 6.96.663 4.076-.371 7.345-1.711 7.726-.367.051-.739-.047-1.034-.272-1.867-1.588-3.032-3.849-3.24-6.292-.597-2.563-.2-5.257 1.113-7.538zm3.22 25.721c-.85-2.237-.814-4.713.099-6.925.175-.374.481-.672.861-.836.084-.02.171-.03.257-.03 1.336 0 3.462 2.246 4.531 5.609 1.172 3.685.554 6.806-.757 7.42-.4.13-.836.091-1.207-.109-1.888-1.132-3.247-2.972-3.774-5.11zm6.604 16.249c-1.079-1.899-1.371-4.145-.816-6.257.131-.45.428-.834.831-1.073.166-.07.345-.103.524-.099 1.34 0 3.462 1.608 4.862 4.422 1.608 3.23 1.38 6.247.168 7.034-.417.219-.907.253-1.35.094-1.893-.752-3.408-2.228-4.209-4.101zm8.587 14.345c-1.239-1.6-1.813-3.616-1.603-5.629.067-.501.328-.956.727-1.266.271-.155.579-.232.89-.223 2.066.355 3.874 1.596 4.946 3.398 1.979 2.795 2.132 5.678 1.039 6.628-.411.297-.926.411-1.425.317-1.892-.421-3.537-1.582-4.566-3.225zm10.338 12.405c-1.409-1.304-2.232-3.121-2.285-5.04-.01-.519.192-1.019.559-1.385.386-.283.857-.425 1.336-.401 1.881.187 3.621 1.082 4.867 2.503 2.073 2.147 2.923 4.981 1.86 6.193-.388.365-.907.557-1.439.534-1.889-.1-3.655-.969-4.887-2.404zm11.841 10.501c-1.536-1.044-2.582-2.666-2.899-4.496-.075-.512.061-1.033.376-1.444.5-.463 1.17-.7 1.85-.653 1.666.097 3.26.711 4.561 1.756 2.315 1.771 3.517 4.397 2.631 5.728-.342.423-.839.692-1.38.747-1.859.157-3.705-.432-5.129-1.637zm13.093 8.602c-1.645-.793-2.895-2.222-3.462-3.957-.15-.498-.085-1.036.178-1.484.641-.71 1.58-1.077 2.533-.989 1.392.037 2.753.423 3.957 1.123 2.513 1.42 4.041 3.819 3.344 5.248-.286.463-.743.795-1.271.925-1.802.41-3.692.099-5.268-.866zm19.489 6.876c-1.75.649-3.686.581-5.387-.188-1.725-.571-3.142-1.822-3.923-3.462-.208-.473-.208-1.011 0-1.484.777-.988 2.012-1.5 3.26-1.35 1.091.012 2.169.229 3.181.638 2.676 1.059 4.511 3.225 4.002 4.734-.207.509-.612.911-1.123 1.113h-.01zm14.839 4.095c-1.652.866-3.579 1.044-5.362.495-1.791-.346-3.366-1.4-4.368-2.923-.261-.428-.336-.945-.208-1.43.376-1.024 1.944-1.81 4.026-1.81.757.004 1.512.1 2.246.287 2.795.707 4.907 2.627 4.61 4.19-.138.51-.47.945-.925 1.212zm15.255 2.211c-1.524 1.073-3.414 1.492-5.248 1.162-1.831-.122-3.535-.976-4.729-2.369-.318-.387-.461-.888-.396-1.385.267-1.237 2.201-2.35 4.823-2.35.39.002.78.025 1.167.069 3.176.396 5.228 2.186 5.149 3.606-.07.505-.339.96-.747 1.266h-.019zm15.418.337c-1.366 1.239-3.169 1.881-5.011 1.786-1.845.103-3.655-.541-5.021-1.786-.368-.347-.578-.83-.579-1.336.114-1.425 2.394-2.968 5.609-2.968s5.495 1.538 5.609 2.968c-.006.507-.219.989-.589 1.336zm15.334-1.548c-1.195 1.398-2.904 2.254-4.739 2.374-1.833.324-3.719-.094-5.243-1.162-.415-.302-.691-.758-.767-1.266-.074-1.42 1.979-3.205 5.149-3.606 3.171-.401 5.683.866 5.99 2.28.073.494-.06.996-.366 1.39zm15.002-3.418c-1.001 1.522-2.574 2.576-4.363 2.923-1.784.549-3.713.372-5.367-.495-.459-.253-.799-.678-.945-1.182-.297-1.563 1.815-3.462 4.615-4.19 3.126-.791 5.768.153 6.267 1.523.135.478.069.991-.183 1.42zm14.429-5.313c-.783 1.641-2.202 2.891-3.927 3.462-1.7.765-3.633.831-5.382.183-.499-.197-.901-.582-1.118-1.073-.495-1.484 1.336-3.675 4.007-4.734 3.022-1.187 5.763-.589 6.43.712.203.461.208.985.015 1.449zm13.617-7.212c-.562 1.731-1.803 3.159-3.438 3.957-1.581.984-3.486 1.306-5.303.895-.529-.13-.985-.462-1.271-.925-.697-1.43.831-3.833 3.344-5.248 2.839-1.578 5.644-1.355 6.49-.158.275.442.349.98.203 1.479zm9.661-4.625c-1.427 1.207-3.277 1.794-5.139 1.632-.542-.053-1.04-.322-1.38-.747-.89-1.331.312-3.957 2.627-5.728 2.607-1.979 5.416-2.171 6.43-1.103.317.412.451.936.371 1.449-.314 1.827-1.354 3.449-2.884 4.496zm11.831-10.506c-1.214 1.464-2.996 2.339-4.897 2.404-.53.022-1.047-.171-1.434-.534-1.063-1.212-.213-4.046 1.86-6.193 2.33-2.389 5.095-3.022 6.203-2.102.367.367.57.866.564 1.385-.051 1.916-.869 3.732-2.27 5.04zm10.343-12.405c-1.036 1.649-2.692 2.812-4.595 3.225-.498.09-1.012-.024-1.425-.317-1.098-.95-.94-3.838 1.039-6.628s4.664-3.908 5.857-3.171c.4.308.661.761.727 1.261.22 2.01-.345 4.026-1.578 5.629zm8.592-14.345c-.8 1.885-2.324 3.369-4.229 4.12-.441.158-.929.126-1.345-.089-1.217-.791-1.439-3.809.168-7.039 1.608-3.23 4.13-4.862 5.387-4.323.401.241.698.624.831 1.073.568 2.115.286 4.368-.786 6.277zm6.599-16.244c-.53 2.145-1.891 3.99-3.784 5.129-.372.195-.807.232-1.207.104-1.311-.599-1.929-3.72-.757-7.42 1.167-3.596 3.512-5.901 4.793-5.575.378.162.682.458.856.831.928 2.216.972 4.702.124 6.95zm4.358-18.193c-.21 2.441-1.374 4.7-3.24 6.287-.297.217-.663.315-1.029.277-1.345-.386-2.379-3.655-1.716-7.731.732-4.387 2.928-7.063 4.056-6.96.327.087.609.293.791.579 1.337 2.283 1.753 4.989 1.162 7.568z" fill="#fcd462"/><ellipse cx="186.11" cy="220.397" fill="#fcd462" rx="17.164" ry="25.311"/><path d="m186.11 240.949c-6.727 0-12.406-9.398-12.406-20.552s5.678-20.552 12.406-20.552c6.727 0 12.406 9.398 12.406 20.552s-5.679 20.552-12.406 20.552z" fill="#029bc5"/><path d="m198.531 220.402c0 11.154-5.683 20.537-12.44 20.537-3.706-.364-6.965-2.606-8.631-5.936 1.6 1.724 3.818 2.745 6.168 2.839 6.702 0 12.366-9.438 12.366-20.587.099-5.185-1.258-10.293-3.918-14.745 4.423 4.882 6.742 11.311 6.455 17.892z" fill="#048baa"/><path d="m183.627 186.108h4.966v11.387h-4.966z" fill="#fcd462"/></g></svg>