<svg height="512pt" viewBox="0 0 512 512.00129" width="512pt" xmlns="http://www.w3.org/2000/svg"><path d="m496.96875 512h-481.96875c-8.285156 0-15-6.714844-15-15v-327.554688c0-31.542968 19.078125-59.097656 48.605469-70.195312l130.207031-48.949219c1.6875-.636719 3.476562-.960937 5.277344-.960937h143.785156c1.804688 0 3.59375.324218 5.28125.960937l130.203125 48.949219c29.527344 11.101562 48.605469 38.652344 48.605469 70.195312v327.554688c0 8.285156-6.714844 15-14.996094 15zm0 0" fill="#00347b"/><path d="m463.363281 99.25-130.207031-48.949219c-1.6875-.636719-3.476562-.960937-5.277344-.960937h-72.894531v462.660156h241.984375c8.28125 0 14.996094-6.714844 14.996094-15v-327.554688c0-31.542968-19.074219-59.09375-48.601563-70.195312zm0 0" fill="#001737"/><path d="m248.386719 59.449219-60.761719 26.554687 67.359375 368.65625 69.480469-368.144531zm0 0" fill="#f5f0eb"/><g fill="#ebe1dc"><path d="m256.003906 61.796875v392.863281l69.484375-368.144531zm0 0"/><path d="m256.046875 165.019531c8.261719 0 15-6.734375 15-14.996093 0-8.261719-6.738281-15-15-15s-15 6.738281-15 15c0 8.257812 6.738281 14.996093 15 14.996093zm0 0" fill-rule="evenodd"/><path d="m256.046875 225.015625c8.261719 0 15-6.738281 15-14.996094 0-8.261719-6.738281-15-15-15s-15 6.738281-15 15c0 8.257813 6.738281 14.996094 15 14.996094zm0 0" fill-rule="evenodd"/></g><path d="m424.953125 226.414062c-2.128906-4.441406-6.304687-7.554687-11.171875-8.328124l-23.183594-3.683594 29.875-34.074219c4.921875-5.617187 4.964844-13.996094.097656-19.664063l-82.496093-95.992187c-3.8125-4.4375-9.851563-6.25-15.480469-4.652344-5.625 1.601563-9.808594 6.328125-10.710938 12.105469l-55.898437 356.703125-55.894531-356.703125c-.90625-5.777344-5.089844-10.503906-10.714844-12.105469-5.621094-1.597656-11.667969.214844-15.480469 4.652344l-82.496093 95.992187c-4.867188 5.667969-4.824219 14.050782.097656 19.664063l29.875 34.074219-23.183594 3.683594c-4.867188.773437-9.042969 3.886718-11.171875 8.332031-2.128906 4.441406-1.941406 9.648437.503906 13.925781l150.941407 264.097656c2.734374 4.78125 7.765624 7.558594 13.027343 7.558594h8.992188c5.257812 0 10.292969-2.777344 13.023437-7.558594l150.945313-264.097656c2.445312-4.28125 2.632812-9.484375.503906-13.929688zm0 0" fill="#00429d"/><path d="m424.953125 226.414062c-2.128906-4.441406-6.304687-7.554687-11.171875-8.328124l-23.183594-3.683594 29.875-34.074219c4.921875-5.617187 4.964844-13.996094.097656-19.664063l-82.496093-95.992187c-3.8125-4.4375-9.851563-6.25-15.480469-4.652344-5.625 1.601563-9.808594 6.328125-10.710938 12.105469l-55.898437 356.703125v83.171875h4.496094c5.261719 0 10.292969-2.777344 13.027343-7.558594l150.945313-264.101562c2.441406-4.277344 2.628906-9.480469.5-13.925782zm0 0" fill="#00347b"/><path d="m174.074219 121.460938c-4.640625 0-9.324219-1.117188-13.738281-3.371094-10.234376-5.230469-16.347657-15.21875-16.347657-26.714844v-61.289062c0-11.496094 6.113281-21.480469 16.347657-26.714844 10.238281-5.230469 21.910156-4.332032 31.226562 2.402344l59.207031 42.800781c3.902344 2.820312 6.214844 7.34375 6.214844 12.15625s-2.3125 9.335937-6.214844 12.15625l-59.207031 42.800781c-5.296875 3.832031-11.359375 5.773438-17.488281 5.773438zm-.222657-30.167969" fill="#ff193d"/><path d="m337.890625 121.460938c-6.125 0-12.1875-1.941407-17.488281-5.773438l-59.207032-42.800781c-3.902343-2.820313-6.210937-7.34375-6.210937-12.15625s2.308594-9.335938 6.210937-12.15625l59.210938-42.800781c9.3125-6.734376 20.984375-7.632813 31.222656-2.402344 10.234375 5.230468 16.347656 15.21875 16.347656 26.714844v61.289062c0 11.496094-6.113281 21.484375-16.347656 26.714844-4.414062 2.253906-9.09375 3.371094-13.738281 3.371094zm.222656-91.292969" fill="#be003b"/><path d="m255.984375 93.621094c-8.285156 0-15-6.714844-15-15v-27.1875c0-8.28125 6.714844-14.996094 15-14.996094 8.28125 0 15 6.714844 15 14.996094v27.1875c0 8.285156-6.71875 15-15 15zm0 0" fill="#be003b"/><path d="m255.984375 36.4375c-.066406 0-.128906.007812-.191406.007812v57.164063c.0625.003906.125.011719.191406.011719 8.28125 0 15-6.714844 15-15v-27.1875c0-8.28125-6.71875-14.996094-15-14.996094zm0 0" fill="#97002c"/><path d="m256.046875 135.023438c-.085937 0-.167969.011718-.253906.011718v29.972656c.085937 0 .167969.011719.253906.011719 8.261719 0 15-6.738281 15-15 0-8.257812-6.738281-14.996093-15-14.996093zm0 0" fill="#dcd2cd" fill-rule="evenodd"/><path d="m256.046875 195.019531c-.085937 0-.167969.011719-.253906.011719v29.972656c.085937 0 .167969.011719.253906.011719 8.261719 0 15-6.738281 15-15 0-8.257813-6.738281-14.996094-15-14.996094zm0 0" fill="#dcd2cd" fill-rule="evenodd"/></svg>